<?xml version="1.0" standalone="no"?>
<!DOCTYPE svg PUBLIC "-//W3C//DTD SVG 20010904//EN"
 "http://www.w3.org/TR/2001/REC-SVG-20010904/DTD/svg10.dtd">
<svg version="1.0" xmlns="http://www.w3.org/2000/svg"
 width="300.000000pt" height="300.000000pt" viewBox="0 0 300.000000 300.000000"
 preserveAspectRatio="xMidYMid meet">
<metadata>
Created by potrace 1.11, written by Peter Selinger 2001-2013
</metadata>
<g transform="translate(0.000000,300.000000) scale(0.100000,-0.100000)"
fill="#000000" stroke="none">
<path d="M2888 2558 c-152 -192 -303 -338 -464 -450 l-51 -36 -41 57 c-175
240 -442 401 -740 445 -83 12 -258 14 -312 3 -20 -4 -87 -17 -110 -22 -47 -10
-78 -19 -89 -29 -8 -6 -16 -9 -18 -8 -8 7 -119 -43 -193 -86 -309 -181 -511
-500 -545 -862 -9 -90 -6 -160 10 -293 5 -41 4 -57 -5 -57 -14 0 -278 -178
-287 -194 -5 -7 -2 -7 8 0 19 16 259 139 285 148 18 5 23 -1 38 -51 41 -133
132 -291 229 -398 41 -47 44 -52 30 -70 -22 -30 -86 -141 -132 -230 l-42 -80
46 50 c54 58 87 98 148 177 l44 56 44 -35 c131 -103 322 -193 464 -218 11 -2
40 -7 65 -12 56 -10 258 -10 325 0 101 14 223 52 323 100 265 128 485 381 575
662 47 145 65 365 43 505 -13 75 -44 193 -67 247 l-21 52 33 43 c18 24 37 48
43 53 6 6 31 35 56 65 25 30 53 64 64 75 28 31 139 174 177 230 62 89 148 245
136 245 -2 0 -33 -37 -69 -82z"/>
</g>
</svg>
