<?xml version="1.0" standalone="no"?>
<!DOCTYPE svg PUBLIC "-//W3C//DTD SVG 20010904//EN"
 "http://www.w3.org/TR/2001/REC-SVG-20010904/DTD/svg10.dtd">
<svg version="1.0" xmlns="http://www.w3.org/2000/svg"
 width="300.000000pt" height="300.000000pt" viewBox="0 0 300.000000 300.000000"
 preserveAspectRatio="xMidYMid meet">
<metadata>
Created by potrace 1.11, written by Peter Selinger 2001-2013
</metadata>
<g transform="translate(0.000000,300.000000) scale(0.100000,-0.100000)"
fill="#000000" stroke="none">
<path d="M2860 2518 c-154 -185 -325 -345 -461 -430 l-27 -17 -57 75 c-148
192 -359 334 -596 400 -117 32 -322 43 -450 24 -340 -49 -645 -263 -812 -570
-104 -190 -154 -439 -128 -647 6 -51 13 -98 16 -105 3 -8 -42 -43 -116 -92
-66 -44 -122 -83 -125 -88 -3 -5 48 18 115 51 66 34 125 61 130 61 4 0 21 -35
36 -77 50 -141 101 -230 206 -359 l57 -70 -38 -61 c-22 -33 -62 -105 -90 -159
-59 -113 -53 -108 87 66 42 52 79 99 83 103 4 5 40 -17 81 -48 195 -147 415
-218 669 -217 291 1 545 103 753 301 106 101 168 185 232 316 77 156 106 272
112 455 6 166 -8 267 -58 413 -36 105 -49 76 122 277 138 163 207 253 267 352
42 68 85 148 79 148 -1 0 -41 -46 -87 -102z m-1353 -20 c-4 -14 0 -26 11 -34
15 -12 14 -13 -8 -14 -15 0 -32 -6 -39 -12 -12 -11 -13 -10 -7 6 4 12 0 26
-11 39 -17 19 -17 19 3 13 13 -4 26 -1 34 9 17 21 23 19 17 -7z m-79 -126 l27
-10 -27 -7 c-17 -4 -31 -17 -36 -33 l-10 -27 -7 28 c-4 17 -14 27 -25 27 -29
0 -33 17 -6 24 15 4 27 16 31 33 l7 28 10 -27 c5 -15 21 -31 36 -36z m113 5
c-7 -18 -6 -30 4 -43 21 -28 18 -35 -9 -23 -19 9 -29 7 -50 -6 -29 -19 -31
-17 -14 19 9 22 8 29 -7 46 -20 22 -17 24 18 11 20 -8 29 -6 43 10 22 24 27
19 15 -14z m182 -22 c-16 -34 -16 -36 7 -60 30 -32 21 -41 -20 -20 -31 16 -33
16 -56 -6 -30 -29 -40 -20 -20 19 14 28 14 32 -4 55 -28 35 -25 40 11 21 30
-15 33 -15 58 4 37 30 43 27 24 -13z m-538 -86 c57 -21 79 -19 71 9 -5 13 1
17 24 18 23 1 28 -2 20 -11 -6 -7 -8 -19 -4 -28 4 -12 1 -14 -15 -10 -41 11
-19 -13 62 -67 45 -30 125 -98 178 -150 108 -107 233 -260 221 -272 -4 -4 -21
-10 -37 -13 -28 -6 -34 0 -90 71 -138 178 -324 336 -450 383 -66 25 -96 26
-135 6 -48 -25 -65 -68 -63 -165 1 -116 31 -214 129 -435 5 -13 -97 -48 -107
-37 -14 15 -80 194 -100 269 -29 114 -36 245 -15 316 19 65 67 121 119 136 43
14 125 5 192 -20z m356 -43 c-7 -17 -5 -28 7 -41 16 -17 16 -17 -5 -12 -13 3
-27 -1 -34 -9 -17 -20 -28 -17 -22 6 3 12 -2 29 -12 40 -18 20 -18 20 12 14
22 -4 32 -2 36 10 4 9 11 16 16 16 7 0 7 -8 2 -24z m153 -106 c-5 -23 -1 -34
17 -51 l24 -20 -33 5 c-25 4 -35 1 -44 -14 -18 -28 -30 -25 -22 6 5 21 2 31
-17 46 l-24 19 32 -4 c26 -3 36 1 48 20 21 31 26 29 19 -7z m-502 -69 c-9 -25
-7 -32 14 -52 34 -31 30 -40 -10 -24 -31 13 -35 13 -56 -10 -32 -34 -40 -31
-27 10 10 32 8 38 -19 67 -23 25 -25 30 -9 24 50 -18 71 -17 89 3 24 27 31 20
18 -18z m-332 -363 c11 -24 49 -115 86 -203 36 -88 72 -167 80 -175 10 -10 31
-14 60 -13 56 2 61 6 38 32 -11 11 -31 42 -46 69 l-28 49 45 13 46 13 -3 96
-3 96 -30 0 c-23 0 -30 5 -30 19 0 31 52 38 235 34 136 -3 171 -7 200 -22 108
-56 155 -173 115 -285 -35 -101 -111 -151 -242 -159 -71 -5 -73 -5 -57 -23 10
-11 15 -21 13 -23 -8 -8 -89 -46 -96 -46 -4 0 -21 20 -38 45 -28 41 -33 45
-75 45 -25 1 -115 2 -200 3 -148 2 -155 3 -155 22 0 13 8 21 23 23 24 4 29 30
12 63 -9 16 -22 19 -84 19 -77 0 -86 -5 -86 -51 0 -13 10 -24 31 -31 19 -7 29
-16 27 -27 -5 -23 -191 -24 -195 -1 -2 8 9 22 25 31 23 13 40 46 101 205 41
104 78 197 83 207 7 13 22 17 68 17 l60 0 20 -42z m1077 -20 c42 -86 42 -88
-32 -141 -37 -27 -70 -45 -74 -42 -3 4 -11 21 -18 38 -11 32 -11 32 -12 -20
-1 -45 -5 -54 -30 -72 -16 -12 -31 -21 -34 -21 -3 0 -2 56 1 125 l5 125 -32 6
c-21 4 -31 12 -31 24 0 24 4 25 127 24 l108 -1 22 -45z m193 45 c0 -10 -42
-53 -51 -53 -9 0 -1 29 14 48 10 13 37 17 37 5z m195 -6 c23 -18 14 -33 -25
-40 l-30 -6 0 -155 c0 -85 4 -166 9 -179 6 -14 21 -27 36 -31 18 -5 25 -12 23
-24 -3 -15 -21 -17 -151 -20 l-148 -3 3 23 c2 17 11 24 31 26 l27 3 0 131 c0
72 -2 129 -4 127 -2 -2 -27 -62 -54 -133 -42 -106 -48 -131 -38 -142 15 -15
52 -145 66 -231 5 -31 12 -58 14 -61 12 -11 18 32 7 49 -13 22 -8 24 20 8 15
-8 24 -7 35 2 20 17 28 5 12 -20 -10 -16 -10 -23 0 -33 20 -20 13 -31 -10 -16
-38 23 -68 2 -68 -47 -2 -212 -148 -299 -347 -205 -66 30 -74 42 -46 72 21 23
50 23 105 -2 104 -46 180 -33 213 35 26 55 17 201 -20 313 -14 46 -24 90 -21
98 3 9 1 12 -4 9 -25 -16 -50 8 -74 73 -14 37 -26 73 -26 80 0 12 130 99 143
94 4 -1 7 2 7 7 0 5 28 29 63 54 34 24 85 65 113 91 71 63 106 77 139 53z
m-535 -360 c0 -27 17 -47 41 -47 9 0 22 -6 28 -14 22 -26 -12 -37 -105 -34
-74 3 -89 6 -92 20 -2 12 6 20 30 26 22 5 34 15 36 29 3 18 32 40 55 42 4 1 7
-9 7 -22z m-345 -220 c-8 -20 -15 -39 -15 -42 0 -4 20 -3 45 1 56 8 58 -1 3
-23 l-41 -16 39 -34 c44 -37 42 -40 -9 -18 -20 8 -39 15 -43 15 -3 0 -3 -20 0
-45 9 -56 1 -58 -21 -3 l-17 42 -33 -39 c-37 -43 -40 -41 -18 12 8 19 15 38
15 41 0 2 -20 2 -45 -1 -54 -8 -57 -1 -9 19 l36 15 -21 23 c-11 12 -21 24 -21
27 0 2 20 15 44 29 43 23 46 23 64 7 18 -17 20 -16 36 9 24 35 30 25 11 -19z
m831 -29 c-5 -27 -2 -36 21 -55 l28 -22 -35 5 c-30 5 -37 2 -52 -23 l-17 -28
-1 37 c0 27 -6 42 -20 50 -28 18 -25 25 9 20 23 -3 33 2 46 22 23 35 29 33 21
-6z m-371 -52 c6 2 10 -9 10 -26 0 -30 -8 -39 -20 -20 -4 7 -13 7 -26 0 -20
-11 -28 3 -9 15 6 4 8 16 4 27 -5 17 -3 18 13 10 10 -5 23 -8 28 -6z m-1275
-67 c-9 -17 -8 -25 7 -41 18 -21 18 -21 -11 -14 -20 5 -34 2 -47 -10 -21 -19
-24 -13 -9 16 7 13 6 21 -5 30 -24 20 -17 30 14 24 16 -4 32 -1 35 5 13 21 27
12 16 -10z m1645 -19 c-4 -12 -1 -28 7 -37 11 -14 10 -15 -9 -9 -12 4 -24 2
-28 -4 -10 -16 -28 -11 -21 6 4 10 -1 26 -11 37 -18 20 -17 20 9 13 15 -3 30
-2 33 4 11 18 26 10 20 -10z m-1529 -30 l29 0 -24 -19 c-19 -14 -22 -24 -17
-45 8 -31 -4 -34 -22 -5 -10 16 -19 19 -45 14 l-32 -6 24 21 c19 16 22 26 17
52 l-6 32 23 -22 c13 -12 36 -22 53 -22z m1137 9 c17 17 29 13 18 -7 -7 -14
-6 -25 5 -40 17 -24 12 -27 -16 -12 -13 7 -21 7 -25 0 -12 -19 -25 -10 -19 14
3 13 1 27 -5 30 -21 13 -11 27 10 15 15 -8 24 -8 32 0z m-754 -50 l26 0 -22
-16 c-13 -8 -23 -25 -23 -36 l0 -21 -15 21 c-10 14 -22 19 -35 16 -26 -7 -26
14 0 22 13 4 20 16 21 33 0 27 0 27 11 5 7 -15 20 -23 37 -24z m1072 -33 c15
-16 10 -24 -10 -19 -10 3 -22 0 -25 -6 -11 -17 -26 -13 -20 4 4 8 1 22 -6 30
-10 12 -9 15 8 15 12 0 24 6 29 13 5 8 9 6 11 -8 2 -11 8 -24 13 -29z m-618
-16 c-3 -10 -13 -20 -23 -23 -13 -3 -17 1 -16 18 1 16 7 22 22 22 16 0 20 -4
17 -17z m-529 -29 c-4 -16 -1 -32 5 -35 21 -13 11 -26 -14 -20 -15 4 -32 1
-42 -7 -15 -13 -16 -11 -10 11 4 16 0 31 -11 43 -16 19 -16 19 14 13 22 -5 35
-2 44 9 18 21 20 19 14 -14z m309 -32 c18 18 28 12 21 -13 -3 -13 -1 -27 5
-30 21 -13 11 -27 -10 -15 -15 8 -24 8 -32 0 -18 -18 -28 -12 -21 13 3 13 1
27 -5 30 -21 13 -11 27 10 15 15 -8 24 -8 32 0z m-238 -19 c12 19 20 10 20
-20 0 -22 -4 -29 -14 -25 -7 3 -20 0 -29 -7 -13 -11 -14 -10 -8 9 4 12 2 24
-4 28 -19 12 -11 26 9 15 13 -7 22 -7 26 0z m-153 -77 c15 -13 23 -14 44 -5
36 17 38 15 16 -16 -18 -25 -19 -30 -6 -55 16 -29 5 -37 -17 -11 -12 15 -34
15 -73 -1 -17 -8 -17 -5 3 22 19 25 21 34 12 51 -19 36 -10 43 21 15z m793
-23 c12 19 20 10 20 -20 0 -16 -4 -28 -10 -26 -5 2 -18 -1 -28 -6 -16 -8 -18
-7 -13 10 4 11 2 23 -4 27 -19 12 -11 26 9 15 13 -7 22 -7 26 0z"/>
<path d="M1317 1663 c-4 -3 -7 -80 -7 -169 0 -134 3 -165 16 -178 19 -20 28
-20 63 -1 52 26 77 153 50 250 -18 65 -94 126 -122 98z"/>
<path d="M715 1555 c-5 -11 -14 -35 -21 -54 -23 -55 -19 -63 29 -59 49 3 51
14 19 88 -17 39 -21 42 -27 25z"/>
</g>
</svg>
